<svg width="90" height="20" viewBox="0 0 90 20" fill="none" xmlns="http://www.w3.org/2000/svg">
<path d="M0 0.0821355V19.4251H3.1652V6.81726L18.9079 20V15.9754L0 0.0821355Z" fill="#0168FF"/>
<path fill-rule="evenodd" clip-rule="evenodd" d="M30.3609 17.0021C34.5252 17.0021 37.7325 13.8044 37.7325 10.0616C37.7325 6.31877 34.5252 3.12115 30.3609 3.12115C26.1967 3.12115 22.9894 6.31877 22.9894 10.0616C22.9894 13.8044 26.1967 17.0021 30.3609 17.0021ZM30.3609 19.9589C36.0882 19.9589 40.7311 15.5277 40.7311 10.0616C40.7311 4.59546 36.0882 0.164271 30.3609 0.164271C24.6336 0.164271 19.9907 4.59546 19.9907 10.0616C19.9907 15.5277 24.6336 19.9589 30.3609 19.9589Z" fill="#0168FF"/>
<path d="M43.0634 10.0205L54.0583 0.698152H58.3896L47.478 10.1027L58.4729 19.3429H54.0167L43.0634 10.0205Z" fill="#0168FF"/>
<path d="M65.2198 0.616016H62.2212V19.4251H65.2198V0.616016Z" fill="#0168FF"/>
<path d="M90 19.4251L78.8801 0L77.2975 2.87474L82.8366 12.5257H71.7584L67.7187 19.4251H71.1337L73.5076 15.3593H84.2943L86.6682 19.4251H90Z" fill="#0168FF"/>
</svg>
